<?xml version="1.0" encoding="UTF-8"?>
<svg xmlns="http://www.w3.org/2000/svg" version="1.1" viewBox="0 0 91.23 34.4">
  <defs>
    <style>
      .cls-1 {
        fill: #febc11;
      }

      .cls-2 {
        fill: #fff;
      }
    </style>
  </defs>
  <!-- Generator: Adobe Illustrator 28.6.0, SVG Export Plug-In . SVG Version: 1.2.0 Build 709)  -->
  <g>
    <g id="Layer_1">
      <path class="cls-2" d="M36.17,16.73h-1.63l-.28-1.85h-1.98l-.28,1.85h-1.48l1.64-10.18h2.36l1.64,10.18h0ZM32.49,13.51h1.55l-.78-5.15-.78,5.15h0Z"/>
      <path class="cls-2" d="M40.25,11.36c-.76-.32-1.11-1-1.11-2.09v-.19c0-1.63.79-2.52,2.41-2.52h1.85v1.45h-1.82c-.51,0-.82.26-.82.99v.63c0,.81.37,1.08.97,1.08h.7v-1.13h1.61v1.13h.43v1.45h-.43v3.34c0,.49,0,.86.18,1.24h-1.64c-.07-.2-.12-.35-.15-.8-.28.6-.78.92-1.5.92-1.19,0-1.79-.83-1.79-2.33v-1.03c0-1.03.32-1.79,1.11-2.14M41.58,15.4c.48,0,.81-.25.84-.89v-2.35h-.62c-.73,0-1.06.35-1.06,1.29v.95c0,.73.32,1,.84,1"/>
      <path class="cls-2" d="M52.61,16.73h-1.63l-.28-1.85h-1.98l-.28,1.85h-1.48l1.64-10.18h2.36l1.64,10.18h0ZM48.93,13.51h1.55l-.78-5.15-.78,5.15h0Z"/>
      <path class="cls-2" d="M36.33,29.56h-1.63l-.28-1.85h-1.98l-.28,1.85h-1.48l1.64-10.18h2.36l1.64,10.18h0ZM32.65,26.33h1.55l-.78-5.15-.78,5.15h0Z"/>
      <polygon class="cls-2" points="41.35 27.68 42.58 19.38 44.06 19.38 42.48 29.56 40.07 29.56 38.49 19.38 40.12 19.38 41.35 27.68"/>
      <rect class="cls-2" x="47.01" y="19.38" width="1.61" height="10.18"/>
      <path class="cls-2" d="M57.22,29.56h-1.63l-.28-1.85h-1.98l-.28,1.85h-1.48l1.64-10.18h2.36l1.64,10.18h0ZM53.53,26.33h1.55l-.78-5.15-.78,5.15h0Z"/>
      <polygon class="cls-2" points="59.69 19.38 64.68 19.38 64.68 20.84 62.99 20.84 62.99 29.56 61.38 29.56 61.38 20.84 59.69 20.84 59.69 19.38"/>
      <rect class="cls-2" x="67.58" y="19.38" width="1.61" height="10.18"/>
      <path class="cls-2" d="M72.44,21.82c0-1.63.87-2.56,2.45-2.56s2.45.93,2.45,2.56v5.29c0,1.63-.87,2.56-2.45,2.56s-2.45-.93-2.45-2.56v-5.29ZM74.05,27.22c0,.73.32,1,.84,1s.84-.28.84-1v-5.5c0-.73-.32-1-.84-1s-.84.28-.84,1v5.5Z"/>
      <polygon class="cls-2" points="82.01 22.19 82.01 29.56 80.56 29.56 80.56 19.38 82.58 19.38 84.24 25.47 84.24 19.38 85.68 19.38 85.68 29.56 84.02 29.56 82.01 22.19"/>
      <path class="cls-1" d="M18.49,16.99c-1.29-.98-.47-3.1-1.26-4.29-.13-.19-.28-.31-.46-.33-.56-.05-.94.77-.98,1.67l-.27,6.69c-.1,2.43-1.22,4.72-3.38,5.92l-5.35,2.98c-.25.14-.62,0-.77-.12s-.35-.41-.22-.74L14.05,7.67c.47-1.19,1.49-1.41,2.67-1.4,1.06,0,2.15.16,2.6,1.31l8.31,21.19c.12.32-.09.62-.22.75s-.55.26-.79.12l-5.42-3.05c-3.12-1.75-4.04-6.56-2.58-6.44l2.94.24c.38-.44-.02-1.09-.46-1.42l-2.6-1.98h-.01ZM11.84,20.46l2.63-.3-.05-2.73-2.55,1.96c-.25.19-.18.8-.03,1.08"/>
    </g>
  </g>
</svg>