<?xml version="1.0" encoding="UTF-8"?>
<svg xmlns="http://www.w3.org/2000/svg" version="1.1" viewBox="0 0 30 30">
  <defs>
    <style>
      .cls-1 {
        fill: #febc11;
      }
    </style>
  </defs>
  <!-- Generator: Adobe Illustrator 28.6.0, SVG Export Plug-In . SVG Version: 1.2.0 Build 709)  -->
  <g>
    <g id="Layer_1">
      <path class="cls-1" d="M17.2,13.8c-1.6-1.2-.6-3.9-1.6-5.3-.2-.2-.3-.4-.6-.4-.7,0-1.2,1-1.2,2.1l-.3,8.3c-.1,3-1.5,5.9-4.2,7.4l-6.6,3.7c-.3.2-.8,0-1-.1s-.4-.5-.3-.9L11.7,2.2c.6-1.5,1.9-1.8,3.3-1.7,1.3,0,2.7.2,3.2,1.6l10.3,26.3c.1.4-.1.8-.3.9s-.7.3-1,.1l-6.7-3.8c-3.9-2.2-5-8.2-3.2-8l3.7.3c.5-.5,0-1.4-.6-1.8l-3.2-2.5h0ZM8.9,18.1l3.3-.4v-3.4c0,0-3.2,2.4-3.2,2.4-.3.2-.2,1,0,1.3"/>
    </g>
  </g>
</svg>